<svg id="User_Profile_Monochromatic" data-name="User Profile_Monochromatic" xmlns="http://www.w3.org/2000/svg" xmlns:xlink="http://www.w3.org/1999/xlink" width="250.366" height="92.598" viewBox="0 0 250.366 92.598">
  <defs>
    <linearGradient id="linear-gradient" x1="0.758" y1="1.206" x2="-0.075" y2="-1.074" gradientUnits="objectBoundingBox">
      <stop offset="0" stop-opacity="0"/>
      <stop offset="0.99"/>
    </linearGradient>
    <linearGradient id="linear-gradient-2" x1="-170.706" y1="1.208" x2="-171.539" y2="-1.07" xlink:href="#linear-gradient"/>
    <linearGradient id="linear-gradient-3" x1="0.405" y1="2.406" x2="0.66" y2="-2.818" xlink:href="#linear-gradient"/>
    <linearGradient id="linear-gradient-4" x1="-0.301" y1="0.573" x2="1.741" y2="0.386" xlink:href="#linear-gradient"/>
    <linearGradient id="linear-gradient-5" x1="-334.445" y1="0.573" x2="-332.402" y2="0.386" xlink:href="#linear-gradient"/>
    <linearGradient id="linear-gradient-6" x1="0.663" y1="1.084" x2="-0.285" y2="-1.928" xlink:href="#linear-gradient"/>
  </defs>
  <path id="Path_2585" data-name="Path 2585" d="M100.966,160.366a44.755,44.755,0,0,1-67.315,38.653l1.827,1.656-21.96,7.536,7.415-20.326a44.748,44.748,0,1,1,80.033-27.52Z" transform="translate(-11.47 -115.614)" fill="#31323b" opacity="0.18" style="isolation: isolate"/>
  <path id="Path_2586" data-name="Path 2586" d="M54.906,199.383s-12.3.25-18.556,10.52c0,0-3.262,14.595-2.855,17.706l8.065-3.654c.243.664,12.09,5.345,22.417,4.882,19.048-.849,27.677-10.5,27.677-10.5s-2.02-13.7-13.31-16.807S54.906,199.383,54.906,199.383Z" transform="translate(-17.766 -139.558)" fill="#2673d1"/>
  <path id="Path_2587" data-name="Path 2587" d="M62.356,198.58s-2.662.407-2.576,2.334.407,7.729,3.4,6.338,5.524-5.6,5.524-5.6Z" transform="translate(-25.301 -139.368)" fill="#fff"/>
  <path id="Path_2588" data-name="Path 2588" d="M80.218,198.58s2.662.407,2.584,2.334-.414,7.729-3.4,6.338-5.524-5.6-5.524-5.6Z" transform="translate(-29.339 -139.368)" fill="#fff"/>
  <path id="Path_2589" data-name="Path 2589" d="M49.052,157.474s-3.026,19.148,4.582,21.6a7.058,7.058,0,0,0,5.567.714v6.052s7.686,5.809,13.988-.407v-15.58s-.714-9.528-2.619-8.514c-.435.243-4.282-.157-4.91-7.137,0,0-8.835-3.925-12.925-1.228S49.052,157.474,49.052,157.474Z" transform="translate(-22.06 -126.039)" fill="#f7af87"/>
  <path id="Path_2590" data-name="Path 2590" d="M46.151,152.887a7.137,7.137,0,0,0,4.389,3.447,4.546,4.546,0,0,0,4.932-2.048,5.367,5.367,0,0,0,6.966,1.584c1.013,1.427,2.948,1.82,4.682,1.713A9.478,9.478,0,0,0,73.1,155.1a7.094,7.094,0,0,0,2.141-5.981c-.378-2.562-2.312-4.625-4.382-6.173a23.1,23.1,0,0,0-11.233-4.56c-3.69-.414-9.585,0-12.411,2.783S44.131,149.49,46.151,152.887Z" transform="translate(-21.022 -122.095)" fill="#dd6034"/>
  <path id="Path_2591" data-name="Path 2591" d="M63.51,189.654s4.66-1.228,6.38-3.354c0,0-2.377,9.328-6.38,9.406Z" transform="translate(-26.37 -135.853)" fill="url(#linear-gradient)"/>
  <path id="Path_2592" data-name="Path 2592" d="M75.825,155.857l.335,6.6,1.327-1.813c.2-.278.471-.578.806-.521s.414.293.528.521a5.874,5.874,0,0,1-.971,6.559,2.769,2.769,0,0,0-.678.878,2.205,2.205,0,0,0-.057.892c.136,1.927,2.976,4.189,3.461,2.791s.578-2.919,1.035-4.332a17.956,17.956,0,0,1,3-5,14.894,14.894,0,0,0,2.855-5.1,5.317,5.317,0,0,0-1.427-5.381,2.348,2.348,0,0,1-.714-.714,2.063,2.063,0,0,1-.136-.714,10.348,10.348,0,0,0-2.776-6.345,8.379,8.379,0,0,0-6.366-2.584,2.669,2.669,0,0,0-1.156.271,2.855,2.855,0,0,0-1.206,1.977c-.764,3.568.892,7.137,1.513,10.762" transform="translate(-35.126 -123.052)" fill="#dd6034"/>
  <path id="Path_2593" data-name="Path 2593" d="M239.655,160.37a44.762,44.762,0,0,1-67.322,38.653l1.827,1.656-21.981,7.536,7.408-20.326a44.748,44.748,0,1,1,80.04-27.52Z" transform="translate(-69.395 -115.618)" fill="#31323b" opacity="0.2" style="isolation: isolate"/>
  <path id="Path_2594" data-name="Path 2594" d="M192.918,199.383s-12.3.25-18.556,10.52c0,0-4.282,14.716-3.854,17.842l9.506-3.112c4.739,2.648,11.854,4.675,21.974,4.218,19.084-.849,27.677-10.52,27.677-10.52s-2.02-13.7-13.31-16.807S192.918,199.383,192.918,199.383Z" transform="translate(-75.108 -139.557)" fill="#2673d1"/>
  <path id="Path_2595" data-name="Path 2595" d="M224.4,165.282c1.549-7.908,2.94-20.112-2.5-22.61l-3.568-.164s-2.619-6.066-13.11-5.081-21.068,9.827-16.286,24.194c2.484,7.451-1.927,18.292-1.927,18.292l15.43-.057,23.823-.757h0a21.553,21.553,0,0,1-1.856-13.817Z" transform="translate(-80.11 -121.828)" fill="#404040"/>
  <path id="Path_2596" data-name="Path 2596" d="M226.437,157.248s3.026,19.148-4.582,21.6a7.044,7.044,0,0,1-5.567.714v6.059s-7.686,5.809-13.988-.414V169.58s.714-9.521,2.619-8.507c.435.236,4.282-.164,4.91-7.137,0,0,8.835-3.932,12.925-1.228S226.437,157.248,226.437,157.248Z" transform="translate(-84.985 -125.963)" fill="#f7af87"/>
  <path id="Path_2597" data-name="Path 2597" d="M219.34,189.4s-4.66-1.228-6.38-3.354c0,0,2.369,9.328,6.38,9.413Z" transform="translate(-87.786 -135.781)" fill="url(#linear-gradient-2)"/>
  <path id="Path_2598" data-name="Path 2598" d="M218.884,150.8c-2.362,0-4.932.335-6.594,2.005-2.055,2.063-2.005,5.345-2.9,8.115a10.234,10.234,0,0,1-3.79,5.238,8.279,8.279,0,0,1-6.259,1.377,1.649,1.649,0,0,1-1.135-.635,1.791,1.791,0,0,1-.15-1.028c.207-3.925.671-7.986,2.7-11.348a13.56,13.56,0,0,1,4.553-4.546,8.886,8.886,0,0,1,3.568-1.313c2.5-.285,4.924.828,7.187,1.92" transform="translate(-83.071 -125.063)" fill="#404040"/>
  <path id="Path_2599" data-name="Path 2599" d="M200.776,198.58s-2.662.407-2.576,2.334.407,7.729,3.4,6.338,5.524-5.6,5.524-5.6Z" transform="translate(-82.353 -139.368)" fill="#fff"/>
  <path id="Path_2600" data-name="Path 2600" d="M218.637,198.58s2.662.407,2.584,2.334-.414,7.729-3.4,6.338-5.524-5.6-5.524-5.6Z" transform="translate(-87.706 -139.368)" fill="#fff"/>
  <circle id="Ellipse_48" data-name="Ellipse 48" cx="1.477" cy="1.477" r="1.477" transform="translate(123.071 68.461)" fill="#fff"/>
  <circle id="Ellipse_49" data-name="Ellipse 49" cx="1.477" cy="1.477" r="1.477" transform="translate(123.071 73.685)" fill="#fff"/>
  <circle id="Ellipse_50" data-name="Ellipse 50" cx="1.477" cy="1.477" r="1.477" transform="translate(123.071 78.909)" fill="#fff"/>
  <path id="Path_2601" data-name="Path 2601" d="M377.217,160.37A44.755,44.755,0,0,1,309.9,199.023l1.82,1.656-21.953,7.536,7.437-20.326a44.748,44.748,0,1,1,80.04-27.52Z" transform="translate(-126.88 -115.618)" fill="#31323b" opacity="0.18" style="isolation: isolate"/>
  <path id="Path_2602" data-name="Path 2602" d="M330.453,199.383s-12.3.25-18.591,10.52c0,0-4.282,14.716-3.854,17.842l9.506-3.112c4.739,2.648,11.854,4.675,21.982,4.218,19.077-.849,27.669-10.52,27.669-10.52s-2.02-13.7-13.31-16.807S330.453,199.383,330.453,199.383Z" transform="translate(-132.671 -139.557)" fill="#2673d1"/>
  <path id="Path_2603" data-name="Path 2603" d="M340.374,183.584s-.157,8.7-.928,10.477,6.045,7.208,13.025,2.248l.464-2.177a38.4,38.4,0,0,1-.464-11.319C353.242,177.539,340.374,183.584,340.374,183.584Z" transform="translate(-141.664 -134.236)" fill="#f7af87"/>
  <path id="Path_2604" data-name="Path 2604" d="M340.62,185.324s1.22,5.845,6.387,6.252,5.588-1.342,5.588-1.342l.128-7.494Z" transform="translate(-142.017 -134.833)" fill="url(#linear-gradient-3)"/>
  <path id="Path_2605" data-name="Path 2605" d="M328.272,159.809a2.5,2.5,0,0,0-2.084-.4,1.9,1.9,0,0,0-.714.521c-1.085,1.149-1.028,2.962-.714,4.51a16.692,16.692,0,0,0,.785,2.548,3.66,3.66,0,0,0,.578,1.063,3.707,3.707,0,0,0,3.319.906,1.728,1.728,0,0,0,2-1.706C331.74,164.134,331.005,161.465,328.272,159.809Z" transform="translate(-130.115 -128.131)" fill="#f7af87"/>
  <path id="Path_2606" data-name="Path 2606" d="M369.689,161.449a3.245,3.245,0,0,1,3-.664,2.477,2.477,0,0,1,1.356,2.055,5.624,5.624,0,0,1-.443,2.526,8.379,8.379,0,0,1-1.563,2.8,4.218,4.218,0,0,1-2.783,1.427,2.855,2.855,0,0,1-2.691-1.427,4.667,4.667,0,0,1-.357-1.984,3.8,3.8,0,0,1,.178-1.556C366.813,163.59,368.79,162.07,369.689,161.449Z" transform="translate(-149.34 -128.501)" fill="#f7af87"/>
  <path id="Path_2607" data-name="Path 2607" d="M358.536,157.873c-1.113,9.328-6.3,17.007-14.067,17.007s-14.06-7.615-14.06-17.007,5-19.983,12.761-19.983S360.806,138.8,358.536,157.873Z" transform="translate(-139.094 -121.992)" fill="#f7af87"/>
  <path id="Path_2608" data-name="Path 2608" d="M329.4,151.2l.128,2.084c0,.328.107.714.428.806s.635-.485.642-.913c0-1.713-.535-3.647.528-5a5.6,5.6,0,0,0,.714-.864c.442-.892-.228-2.027.171-2.94.236-.521.757-.842,1.135-1.277a7.851,7.851,0,0,0,1.049-2.22,1.335,1.335,0,0,1,.478-.664,2.585,2.585,0,0,1,.671-.178c.871-.221,1.385-1.113,2.141-1.577a4.118,4.118,0,0,1,2.212-.414c2.976.093,6.073,1.149,8.828,0a7.472,7.472,0,0,0,4.789,3.055.871.871,0,0,1,.45.157,1.114,1.114,0,0,1,.243.535,5.373,5.373,0,0,0,1.185,1.67c1.72,2.141,1.684,5.1,1.556,7.851l-.2,4.361,1.52-2.555a3.033,3.033,0,0,1,.607-.8c.278-.236.649-.378.821-.714a1.5,1.5,0,0,0,.121-.528l.371-3.74a5.224,5.224,0,0,0-.071-2.027c-.128-.414-.357-.792-.485-1.206a7.324,7.324,0,0,1-.064-2.305,2.684,2.684,0,0,0-.671-2.141,10.183,10.183,0,0,0,.578-5.139c-.393-1.7-1.97-3.247-3.69-2.99a2.14,2.14,0,0,1-.8.057,1.7,1.7,0,0,1-.607-.364,7.365,7.365,0,0,0-4.189-1.57,42.523,42.523,0,0,0-5.4,0c-4.04.335-8.279-.5-12.054.956a7.708,7.708,0,0,0-2.469,1.484,11.989,11.989,0,0,0-1.905,2.548,4.318,4.318,0,0,0-.635,1.363,7.135,7.135,0,0,0,0,1.613c0,1.791-.913,3.568-.614,5.317.107.649.371,1.256.464,1.906a10.554,10.554,0,0,1,0,1.777,10.791,10.791,0,0,0,.771,4.375c.093.236.243.507.5.528S329.171,150.923,329.4,151.2Z" transform="translate(-138.076 -119.61)" fill="#404040"/>
  <path id="Path_2609" data-name="Path 2609" d="M332.746,176.374a10.89,10.89,0,0,0,.885,2.491,8.336,8.336,0,0,0,4.5,3.661,18.3,18.3,0,0,0,5.831.935,46.288,46.288,0,0,0,7.95-.471c.942-.136.871-.343,1.627-.906a7.345,7.345,0,0,0,2.855-4.047c.756-4.475,2.02-10.705,1.834-15.244-1.213,2.241-1.2,7.037-2.962,8.878a6.482,6.482,0,0,1-3.74,1.556,37.233,37.233,0,0,1-13.16-.178,6.752,6.752,0,0,1-3.568-1.527c-1.542-1.52-1.427-3.968-1.763-6.109-.136-.942-.5-2.348-1.534-2.662-.314,1.877.114,3.932.157,5.824A34.616,34.616,0,0,0,332.746,176.374Z" transform="translate(-139.375 -129.11)" fill="#404040"/>
  <path id="Path_2610" data-name="Path 2610" d="M327.864,163.783a2.346,2.346,0,0,0-.078-.635.521.521,0,0,0-.464-.378c-.228,0-.393.214-.5.414a3.569,3.569,0,0,0-.107,2.683,3.8,3.8,0,0,0,1.549,2.184,1.242,1.242,0,0,0,1.313.107c.714-.492.435-1.934-.207-2.334-.393-.243-.714-.214-1.021-.642A2.6,2.6,0,0,1,327.864,163.783Z" transform="translate(-130.495 -129.116)" fill="url(#linear-gradient-4)"/>
  <path id="Path_2611" data-name="Path 2611" d="M372.035,163.783a2.348,2.348,0,0,1,.078-.635.521.521,0,0,1,.464-.378c.228,0,.392.214.5.414a3.569,3.569,0,0,1,.107,2.683,3.8,3.8,0,0,1-1.549,2.184,1.242,1.242,0,0,1-1.313.107c-.714-.492-.428-1.934.207-2.334.393-.243.714-.214,1.021-.642A2.6,2.6,0,0,0,372.035,163.783Z" transform="translate(-150.402 -129.116)" fill="url(#linear-gradient-5)"/>
  <path id="Path_2612" data-name="Path 2612" d="M354.371,194.1a4.432,4.432,0,0,0-2.284-.371c-4.817.128-9.8,1.128-14.331-.507a6.323,6.323,0,0,0-1.656,2.733c-.464,2.191,1.385,4.225,3.383,5.224,3.376,1.7,7.329,1.663,11.1,1.427a6.608,6.608,0,0,0,4.175-1.235C356.505,199.814,356.6,195.347,354.371,194.1Z" transform="translate(-140.703 -137.834)" fill="#2673d1"/>
  <path id="Path_2613" data-name="Path 2613" d="M327.983,199.33s-1.556,3.718,6.2,3.875c0,0-7.758.157-9.927,1.863s-7.6,4.339-7.908,7.758-2.177,12.561-2.177,12.561L308,227.756l3.854-17.842a24.372,24.372,0,0,1,16.129-10.584Z" transform="translate(-125.868 -139.583)" fill="url(#linear-gradient-6)"/>
</svg>
